<?xml version="1.0" encoding="utf-8"?>
<!-- Generator: Adobe Illustrator 23.0.3, SVG Export Plug-In . SVG Version: 6.00 Build 0)  -->
<svg version="1.1" id="Layer_1" xmlns="http://www.w3.org/2000/svg" xmlns:xlink="http://www.w3.org/1999/xlink" x="0px" y="0px"
	 viewBox="0 0 24 24" style="enable-background:new 0 0 24 24;" xml:space="preserve">
<style type="text/css">
	.st0{fill:url(#SVGID_1_);}
	.st1{fill:url(#SVGID_2_);}
	.st2{fill:url(#SVGID_3_);}
	.st3{fill:url(#SVGID_4_);}
	.st4{fill:url(#SVGID_5_);}
	.st5{fill:url(#SVGID_6_);}
	.st6{fill:url(#SVGID_7_);}
	.st7{fill:url(#SVGID_8_);}
	.st8{fill:url(#SVGID_9_);}
	.st9{fill:url(#SVGID_10_);}
	.st10{fill:url(#SVGID_11_);}
	.st11{fill:url(#SVGID_12_);}
	.st12{fill:url(#SVGID_13_);}
	.st13{fill:url(#SVGID_14_);}
	.st14{fill:url(#SVGID_15_);}
	.st15{fill:url(#SVGID_16_);}
	.st16{fill:url(#SVGID_17_);}
	.st17{fill:url(#SVGID_18_);}
	.st18{fill:url(#SVGID_19_);}
	.st19{fill:url(#SVGID_20_);}
	.st20{fill:url(#SVGID_21_);}
	.st21{fill:url(#SVGID_22_);}
	.st22{fill:url(#SVGID_23_);}
	.st23{fill:url(#SVGID_24_);}
	.st24{fill:url(#SVGID_25_);}
	.st25{fill:url(#SVGID_26_);}
	.st26{fill:url(#SVGID_27_);}
	.st27{fill:url(#SVGID_28_);}
	.st28{fill:url(#SVGID_29_);}
	.st29{fill:url(#SVGID_30_);}
	.st30{fill:url(#SVGID_31_);}
	.st31{fill:url(#SVGID_32_);}
</style>
<linearGradient id="SVGID_1_" gradientUnits="userSpaceOnUse" x1="3.5409" y1="11.7273" x2="20.5169" y2="11.7273">
	<stop  offset="0" style="stop-color:#1245C6"/>
	<stop  offset="1" style="stop-color:#9909B7"/>
</linearGradient>
<path class="st0" d="M20.2,12.1c-0.1-0.5-0.3-0.8-0.7-1.1c-0.3-0.3-0.7-0.5-1.2-0.5c-1.4-0.2-3.5-0.2-6.4-0.2
	c-2.8,0-4.9,0.1-6.3,0.2c-0.5,0.1-0.8,0.2-1.2,0.5c-0.3,0.3-0.6,0.7-0.7,1.1c-0.2,0.9-0.3,2.2-0.3,4c0,1.8,0.1,3.2,0.3,4
	c0.1,0.5,0.3,0.8,0.7,1.1c0.3,0.3,0.7,0.5,1.2,0.5C7.1,21.9,9.2,22,12,22c2.8,0,5-0.1,6.4-0.2c0.4,0,0.8-0.2,1.2-0.5
	c0.3-0.3,0.6-0.7,0.7-1.1c0.2-0.9,0.3-2.2,0.3-4C20.5,14.3,20.4,12.9,20.2,12.1z M8.4,13.2H7.2v6.5H6v-6.5H4.8v-1.1h3.6L8.4,13.2
	L8.4,13.2z M11.5,19.7h-1v-0.6c-0.4,0.5-0.8,0.7-1.2,0.7c-0.4,0-0.6-0.1-0.7-0.4c-0.1-0.2-0.1-0.5-0.1-0.8v-4.5h1v4.2
	c0,0.2,0,0.4,0,0.4c0,0.2,0.1,0.2,0.2,0.2c0.2,0,0.4-0.2,0.7-0.5v-4.3h1L11.5,19.7L11.5,19.7z M15.4,18.1c0,0.6,0,0.9-0.1,1.1
	c-0.1,0.4-0.4,0.6-0.8,0.6c-0.4,0-0.7-0.2-1.1-0.6v0.5h-1v-7.6h1v2.5c0.3-0.4,0.7-0.6,1.1-0.6c0.4,0,0.7,0.2,0.8,0.6
	c0.1,0.2,0.1,0.6,0.1,1.1V18.1z M19.2,17.1h-2.1v1c0,0.5,0.2,0.8,0.5,0.8c0.3,0,0.4-0.1,0.5-0.4c0-0.1,0-0.3,0-0.7h1v0.1
	c0,0.4,0,0.6,0,0.7c0,0.2-0.1,0.4-0.2,0.6c-0.3,0.4-0.7,0.6-1.2,0.6c-0.5,0-0.9-0.2-1.2-0.6c-0.2-0.3-0.3-0.7-0.3-1.3v-2
	c0-0.6,0.1-1,0.3-1.3c0.3-0.4,0.7-0.6,1.2-0.6c0.5,0,0.9,0.2,1.2,0.6c0.2,0.3,0.3,0.7,0.3,1.3L19.2,17.1L19.2,17.1z M13.9,14.9
	c-0.2,0-0.3,0.1-0.5,0.3v3.4c0.2,0.2,0.3,0.3,0.5,0.3c0.3,0,0.4-0.3,0.4-0.8v-2.4C14.4,15.2,14.2,14.9,13.9,14.9z M17.7,14.9
	c-0.3,0-0.5,0.3-0.5,0.8v0.5h1v-0.5C18.2,15.2,18.1,14.9,17.7,14.9z M7.7,6v3.1h1.1V6l1.4-4.6H9.1l-0.8,3l-0.8-3H6.3
	C6.5,2.1,6.7,2.8,7,3.6C7.4,4.7,7.6,5.5,7.7,6z M11.8,9.2c0.5,0,0.9-0.2,1.2-0.6c0.2-0.3,0.3-0.7,0.3-1.4v-2c0-0.6-0.1-1.1-0.3-1.3
	c-0.3-0.4-0.7-0.6-1.2-0.6c-0.5,0-0.9,0.2-1.2,0.6c-0.2,0.3-0.3,0.7-0.3,1.3v2c0,0.6,0.1,1.1,0.3,1.4C10.9,9,11.3,9.2,11.8,9.2z
	 M11.3,5.1c0-0.5,0.2-0.8,0.5-0.8c0.3,0,0.5,0.3,0.5,0.8v2.4c0,0.5-0.2,0.8-0.5,0.8c-0.3,0-0.5-0.3-0.5-0.8V5.1z M14.9,9.2
	c0.4,0,0.8-0.2,1.2-0.7v0.6h1V3.4h-1v4.4c-0.2,0.3-0.4,0.5-0.7,0.5c-0.1,0-0.2-0.1-0.2-0.3c0,0,0-0.1,0-0.4V3.4h-1v4.5
	c0,0.4,0,0.7,0.1,0.9C14.4,9.1,14.6,9.2,14.9,9.2z"/>
</svg>
